<?xml version="1.0" standalone="no"?>
<!DOCTYPE svg PUBLIC "-//W3C//DTD SVG 20010904//EN"
 "http://www.w3.org/TR/2001/REC-SVG-20010904/DTD/svg10.dtd">
<svg version="1.0" xmlns="http://www.w3.org/2000/svg"
 width="483.000000pt" height="483.000000pt" viewBox="0 0 483.000000 483.000000"
 preserveAspectRatio="xMidYMid meet">

<g transform="translate(0.000000,483.000000) scale(0.100000,-0.100000)"
fill="#000000" stroke="none">
<path d="M2260 4804 c-19 -2 -77 -9 -128 -15 -663 -77 -1270 -440 -1669 -997
-284 -398 -437 -875 -437 -1372 0 -206 10 -310 51 -505 61 -295 174 -562 346
-824 101 -153 198 -270 333 -401 108 -104 282 -250 299 -250 3 0 38 -21 77
-46 298 -192 677 -325 1040 -364 125 -13 411 -13 554 0 235 22 522 107 739
218 201 103 534 333 600 416 41 51 78 88 108 109 26 17 127 144 226 285 159
226 276 484 345 763 47 188 66 354 66 567 0 283 -35 514 -115 758 -115 351
-293 652 -540 911 -209 219 -411 367 -690 504 -244 119 -458 185 -727 224
-101 15 -409 27 -478 19z m-661 -426 l1 -108 78 0 c139 -1 369 -39 507 -85 72
-24 179 -72 234 -104 45 -27 49 -28 77 -13 59 31 193 75 329 107 122 30 189
41 437 71 45 6 48 8 55 42 4 21 7 88 7 150 1 95 3 112 16 110 13 -3 15 -27 13
-158 l-2 -155 52 -35 c92 -61 343 -323 472 -492 l120 -157 135 -47 c74 -25
194 -76 267 -114 91 -46 135 -64 142 -57 33 33 170 -430 186 -628 l5 -70 -25
90 c-65 228 -166 535 -186 561 -17 21 -306 162 -384 187 -151 48 -136 52 -202
-53 -77 -121 -196 -300 -288 -433 -90 -129 -90 -132 -36 -301 69 -212 139
-547 161 -765 5 -52 13 -97 17 -101 4 -3 69 -30 143 -60 74 -29 200 -84 279
-122 l145 -68 39 37 c97 95 231 309 296 475 18 45 36 85 38 88 17 15 -10 -105
-35 -160 -50 -111 -156 -281 -235 -375 -74 -89 -76 -91 -93 -180 -28 -150
-147 -485 -189 -535 -7 -8 -22 -33 -33 -55 -32 -63 -179 -198 -262 -240 -146
-74 -341 -122 -578 -144 l-102 -9 -67 -61 c-129 -119 -288 -206 -503 -276
-100 -33 -131 -39 -234 -43 -306 -11 -674 73 -989 227 -78 37 -151 76 -162 84
-19 15 -15 16 58 17 42 0 77 2 77 4 0 2 -13 36 -30 75 -76 185 -117 342 -135
522 l-6 57 -83 65 c-187 148 -405 413 -512 621 l-37 72 -173 -4 c-198 -5 -239
0 -247 28 -5 18 -2 19 36 12 54 -9 324 -9 358 0 23 7 28 16 38 70 39 204 141
448 269 643 l59 91 -19 54 c-53 154 -98 423 -117 698 -5 74 -13 138 -18 143
-12 12 -205 25 -283 18 -36 -3 -67 -4 -69 -2 -2 1 25 47 61 100 256 385 590
667 1007 854 l106 47 7 -51 c3 -29 6 -100 7 -159z"/>
<path d="M1510 4206 c-178 -80 -268 -145 -447 -319 -174 -170 -238 -251 -255
-325 -22 -101 39 -556 109 -798 l26 -91 126 -23 c142 -26 403 -90 594 -147
l129 -38 171 173 c178 180 371 356 444 406 62 42 153 141 153 167 0 27 -84
612 -105 729 -17 95 -16 94 -120 147 -191 97 -429 153 -647 153 -95 -1 -109
-3 -178 -34z"/>
<path d="M2505 3088 c-38 -33 -145 -125 -237 -205 -208 -180 -397 -368 -428
-427 l-24 -44 42 -179 c23 -98 58 -252 77 -343 20 -91 50 -226 68 -300 l32
-134 125 -54 c179 -78 449 -165 640 -206 91 -20 175 -39 187 -41 41 -9 247
152 473 369 115 111 225 222 246 249 l37 47 -6 113 c-6 116 -38 302 -81 473
-26 103 -123 435 -129 440 -7 7 -341 135 -452 174 -118 40 -293 87 -410 110
-33 6 -67 13 -75 15 -8 2 -46 -23 -85 -57z"/>
<path d="M1845 1348 c-168 -85 -423 -198 -537 -239 -79 -28 -76 -13 -49 -194
33 -217 104 -428 167 -490 118 -118 504 -257 791 -284 339 -33 705 86 903 294
33 34 35 40 34 103 -1 49 -10 95 -37 172 -20 58 -47 150 -61 206 -13 55 -32
125 -41 155 l-17 54 -127 24 c-224 42 -487 123 -735 227 -71 30 -129 54 -130
53 -1 0 -73 -36 -161 -81z"/>
</g>
</svg>
